<svg xmlns:xlink="http://www.w3.org/1999/xlink" xmlns="http://www.w3.org/2000/svg" width="122" height="24" viewBox="0 0 122 24" fill="none">
<g clip-path="url(#clip0_457_1193)">
<path d="M107.843 7.42575C107.843 6.39065 107.483 5.51306 106.763 4.79298C106.043 4.07291 105.166 3.71287 104.131 3.71287C105.166 3.71287 106.043 3.35284 106.763 2.63277C107.483 1.91269 107.843 1.0351 107.843 0C107.843 1.0351 108.204 1.91269 108.924 2.63277C109.644 3.35284 110.521 3.71287 111.556 3.71287C110.521 3.71287 109.644 4.07291 108.924 4.79298C108.204 5.51306 107.843 6.39065 107.843 7.42575Z" fill="black"/>
<path d="M112.1 8.05074H114.798V3.6844H118.073V8.05074H121.863V10.901H118.073V18.3298C118.073 19.098 118.225 19.6842 118.528 20.0885C118.851 20.4928 119.387 20.6949 120.135 20.6949C120.499 20.6949 120.822 20.6444 121.105 20.5433C121.388 20.422 121.671 20.2805 121.954 20.1188V23.3026C121.611 23.4441 121.247 23.5553 120.863 23.6362C120.479 23.717 120.024 23.7574 119.498 23.7574C118.063 23.7574 116.921 23.343 116.072 22.5142C115.223 21.6652 114.798 20.5029 114.798 19.0272V10.901H112.1V8.05074Z" fill="black"/>
<path d="M105.987 23.5149V8.05076H109.262V23.5149H105.987Z" fill="black"/>
<path d="M89.5903 23.5149V1.80447H92.8651V14.6003L99.4146 8.05076H103.478V8.23269L97.5043 14.1454L103.69 23.333V23.5149H99.8088L95.1998 16.4196L92.8651 18.724V23.5149H89.5903Z" fill="black"/>
<path d="M72.0013 23.5148V8.05072H75.0941V10.1732H75.276C75.7208 9.42531 76.3777 8.80877 77.247 8.32362C78.1364 7.81825 79.1067 7.56557 80.1579 7.56557C82.058 7.56557 83.4832 8.13158 84.4332 9.26359C85.3833 10.3754 85.8584 11.8713 85.8584 13.7512V23.5148H82.6139V14.1757C82.6139 12.9224 82.3006 12.0128 81.674 11.4468C81.0473 10.8605 80.2286 10.5674 79.2179 10.5674C78.4295 10.5674 77.7422 10.7898 77.156 11.2345C76.5698 11.659 76.1048 12.225 75.7612 12.9325C75.4378 13.64 75.276 14.3981 75.276 15.2067V23.5148H72.0013Z" fill="black"/>
<path d="M61.6253 24C60.1092 24 58.7548 23.6462 57.5622 22.9387C56.3695 22.2312 55.4296 21.2609 54.7423 20.0278C54.0752 18.7947 53.7416 17.3898 53.7416 15.8131C53.7416 14.3374 54.0651 12.973 54.7119 11.7197C55.3588 10.4664 56.2584 9.46574 57.4106 8.7178C58.583 7.94965 59.9273 7.56557 61.4434 7.56557C63.0403 7.56557 64.3947 7.90922 65.5065 8.59651C66.6385 9.28381 67.4976 10.2238 68.0839 11.4164C68.6701 12.6091 68.9632 13.9534 68.9632 15.4492C68.9632 15.6716 68.9531 15.8737 68.9329 16.0557C68.9329 16.2376 68.9228 16.3791 68.9025 16.4802H56.9558C57.0366 17.3292 57.2489 18.067 57.5925 18.6937C58.0372 19.482 58.6235 20.0784 59.3512 20.4827C60.0789 20.887 60.8673 21.0891 61.7163 21.0891C62.7472 21.0891 63.6063 20.8566 64.2936 20.3917C65.0011 19.9066 65.557 19.3102 65.9613 18.6027L68.66 19.9066C67.9929 21.1194 67.0832 22.1099 65.931 22.8781C64.7788 23.626 63.3436 24 61.6253 24ZM57.1377 14.0241H65.7188C65.6985 13.64 65.5975 13.2358 65.4155 12.8112C65.2336 12.3665 64.9708 11.9622 64.6272 11.5984C64.2835 11.2345 63.8489 10.9414 63.3233 10.719C62.7978 10.4765 62.1812 10.3552 61.4737 10.3552C60.5843 10.3552 59.7959 10.5876 59.1086 11.0526C58.4213 11.4973 57.8856 12.124 57.5015 12.9325C57.3398 13.2762 57.2185 13.64 57.1377 14.0241Z" fill="black"/>
<path d="M41.3707 24C39.8142 24 38.3486 23.717 36.974 23.151C35.5994 22.585 34.3866 21.7966 33.3354 20.7859C32.3045 19.7549 31.4858 18.5522 30.8793 17.1776C30.2931 15.7828 30 14.2768 30 12.6596C30 11.0425 30.2931 9.5466 30.8793 8.17201C31.4858 6.77721 32.3045 5.57444 33.3354 4.56372C34.3866 3.53278 35.5994 2.7343 36.974 2.16829C38.3486 1.60229 39.8142 1.31928 41.3707 1.31928C43.0283 1.31928 44.5545 1.61239 45.9493 2.19862C47.3643 2.78484 48.5468 3.60353 49.4969 4.65468L47.1925 6.92882C46.7275 6.40324 46.1918 5.95852 45.5854 5.59466C44.9992 5.2308 44.3523 4.9579 43.6448 4.77597C42.9373 4.57382 42.1793 4.47275 41.3707 4.47275C40.2993 4.47275 39.2785 4.66479 38.3082 5.04887C37.3379 5.43294 36.4788 5.98884 35.7308 6.71657C35.0031 7.42407 34.427 8.28319 34.0025 9.29392C33.578 10.2844 33.3657 11.4063 33.3657 12.6596C33.3657 13.9129 33.578 15.045 34.0025 16.0557C34.4472 17.0462 35.0334 17.9053 35.7611 18.633C36.5091 19.3405 37.3682 19.8863 38.3385 20.2704C39.3088 20.6545 40.3296 20.8465 41.401 20.8465C42.3915 20.8465 43.3113 20.705 44.1603 20.422C45.0295 20.139 45.7876 19.7347 46.4344 19.2092C47.0813 18.6836 47.6069 18.0468 48.0112 17.2989C48.4154 16.5307 48.6681 15.6716 48.7692 14.7215H41.3404V11.7803H51.8923C51.9328 12.0229 51.9732 12.3059 52.0136 12.6293C52.0541 12.9325 52.0743 13.2256 52.0743 13.5087V13.539C52.0743 15.0955 51.8014 16.5206 51.2556 17.8144C50.73 19.1081 49.9922 20.2199 49.0421 21.1497C48.092 22.0594 46.96 22.7669 45.6461 23.2723C44.3523 23.7574 42.9272 24 41.3707 24Z" fill="black"/>
<path fill-rule="evenodd" clip-rule="evenodd" d="M0.315 17.97C0.525 18.33 0.82 18.62 1.2 18.84L9.6 23.67C9.98 23.89 10.38 24 10.8 24C11.22 24 11.62 23.89 12 23.67L20.4 18.84C20.78 18.62 21.075 18.33 21.285 17.97C21.495 17.61 21.6 17.21 21.6 16.77V7.23C21.6 6.79 21.495 6.39 21.285 6.03C21.075 5.67 20.78 5.38 20.4 5.16L12 0.33C11.62 0.11 11.22 0 10.8 0C10.38 0 9.98 0.11 9.6 0.33L1.2 5.16C0.82 5.38 0.525 5.67 0.315 6.03C0.105 6.39 0 6.79 0 7.23V16.77C0 17.21 0.105 17.61 0.315 17.97ZM2.39996 7.22996V16.74L10.8 21.6L19.2 16.74V7.19996L10.8 2.39996L2.39996 7.22996Z" fill="black"/>
<path d="M10.7999 18C10.7999 16.3273 10.2181 14.9091 9.05447 13.7455C7.89084 12.5818 6.47265 12 4.79993 12C6.47265 12 7.89084 11.4182 9.05447 10.2545C10.2181 9.09091 10.7999 7.67273 10.7999 6C10.7999 7.67273 11.3817 9.09091 12.5454 10.2545C13.709 11.4182 15.1272 12 16.7999 12C15.1272 12 13.709 12.5818 12.5454 13.7455C11.3817 14.9091 10.7999 16.3273 10.7999 18Z" fill="black"/>
</g>
<defs>
<clipPath id="clip0_457_1193">
<rect width="122" height="24" fill="black"/>
</clipPath>
</defs>
</svg>